<svg xmlns:rdf="http://www.w3.org/1999/02/22-rdf-syntax-ns#" xmlns="http://www.w3.org/2000/svg" height="600" width="647.3" version="1.1" xmlns:cc="http://creativecommons.org/ns#" xmlns:dc="http://purl.org/dc/elements/1.1/" viewBox="0 0 647.3 600">
 <g transform="translate(-4.99 440.2)">
  <g transform="matrix(6.281 0 0 -6.281 -1081 -727.3)">
   <path d="m276-87.6c0-8.94-23.08-16.18-51.53-16.18s-51.53 7.239-51.53 16.18c0 8.94 23.08 16.19 51.53 16.19s51.53-7.25 51.53-16.19" fill="#fab20b"/>
   <path d="m265.6-90.78c0.72-2.12 0.73-4.49-0.55-6.14-1.86-2.434-6.55-2.875-9.3-3.549-10.21-2.46-20.82-3.31-31.29-3.31-11.04 0-22.3 0.91-33 3.74-3.92 1.046-22.5 8.179-10.54 13.35 3.55 1.53 7.17-0.1 8.87-3.24 4.52 6.26 9.33 9.91 15.82 3.77 0.66 2.58 3.88 5.58 6.34 6.1 4.75 1.01 5.53-1.74 8.13-4.74 3.54 4.33 12.41 2.53 13.72-4.75 4.01 4.1 15.81 9.68 17.33-0.38 4.29 2.33 6.07 7.67 11.66 3.31 1.2-0.9 2.24-2.47 2.81-4.16" fill="#fff"/>
   <g fill="#514e4f">
    <path d="m219.3-69.44-6.95-6.01-20.51 23.72 6.96 6.01 20.5-23.72"/>
    <path d="m218-70.22-0.93 1.08-4.36-3.78c-0.41-0.36-0.59-0.92-0.45-1.44 0 0 1.98-7.68 5.12-15.68 1.57-4 3.42-8.09 5.51-11.4 1.04-1.66 2.14-3.13 3.34-4.3 1.19-1.16 2.48-2.05 3.95-2.44l0.36 1.38-0.49-1.34c0.1 0 3.58-1.32 7.69-1.33 1.34 0 2.75 0.14 4.14 0.54 1.39 0.39 2.75 1.05 3.94 2.07 1.71 1.55 2.8 3.36 3.44 5.15 0.64 1.786 0.84 3.555 0.84 5.109 0 3.01-0.75 5.21-0.78 5.31l-1.35-0.46 1.42 0.15c-0.18 1.52-0.87 2.93-1.85 4.28-1.73 2.35-4.38 4.6-7.4 6.73-4.54 3.19-9.92 6.09-14.19 8.21-4.26 2.12-7.4 3.44-7.42 3.45-0.5 0.21-1.08 0.12-1.49-0.23l0.93-1.08-0.55-1.32s0.1 0 0.31-0.13c1.56-0.68 8.7-3.83 15.51-7.86 3.4-2.01 6.72-4.25 9.18-6.45 1.23-1.1 2.25-2.19 2.96-3.21 0.7-1.02 1.09-1.94 1.17-2.7 0-0.1 0-0.2 0.1-0.3l0.44 0.14-0.44-0.14 0.44 0.14-0.44-0.14s0.64-1.95 0.64-4.39c0-1.304-0.18-2.749-0.68-4.149-0.5-1.41-1.32-2.77-2.67-3.99l0.96-1.06-0.93 1.08c-0.83-0.71-1.79-1.18-2.86-1.49-1.06-0.3-2.22-0.42-3.36-0.42-1.75 0-3.45 0.28-4.7 0.58-0.62 0.14-1.14 0.29-1.49 0.4-0.17 0-0.31 0.1-0.39 0.13h-0.1-0.13c-0.79 0.2-1.72 0.77-2.68 1.72-1.7 1.66-3.45 4.399-5.04 7.545-2.39 4.73-4.44 10.38-5.89 14.82-0.72 2.23-1.29 4.15-1.68 5.52-0.2 0.68-0.35 1.23-0.45 1.6-0.1 0.18-0.1 0.33-0.11 0.42v0.14l-1.38-0.35 0.94-1.08 4.36 3.78-0.94 1.08-0.55-1.32 0.55 1.32"/>
    <path d="m214.8-73.88s2.58-7.27 7.09-15.14c2.26-3.94 5-8.04 8.2-11.5 3.19-3.45 6.85-6.28 11-7.55 0.75-0.24 1.55 0.19 1.78 0.94 0.23 0.76-0.19 1.56-0.95 1.79-3.44 1.04-6.75 3.53-9.74 6.762-4.48 4.837-8.18 11.28-10.73 16.49-1.28 2.61-2.27 4.91-2.94 6.56-0.34 0.82-0.6 1.48-0.77 1.93-0.1 0.22-0.15 0.39-0.19 0.51 0 0.12-0.1 0.17-0.1 0.17-0.26 0.74-1.08 1.13-1.82 0.87-0.75-0.27-1.13-1.08-0.87-1.83"/>
    <path d="m216-74.19h0.1c0.74-0.4 7.4-4.03 14.1-9.41 3.35-2.68 6.71-5.8 9.33-9.12 2.63-3.33 4.5-6.85 5.02-10.3 0.12-0.78 0.85-1.31 1.63-1.19 0.78 0.11 1.31 0.84 1.2 1.62-0.66 4.293-2.93 8.319-5.88 11.98-4.43 5.49-10.45 10.2-15.36 13.57-4.92 3.37-8.74 5.4-8.78 5.41-0.69 0.37-1.56 0.11-1.93-0.59-0.36-0.7-0.1-1.56 0.6-1.93"/>
   </g>
   <path d="m224.5-103.8c-26.61 0-48.5 6.319-51.24 14.45 5.91-35.57 16.21-42.41 16.21-42.41s6.58-9.51 35.03-9.51 35.01 9.51 35.01 9.51 10.32 6.84 16.2 42.41c-2.75-8.13-24.61-14.45-51.21-14.45" fill="#fab20b"/>
  </g>
 </g>
</svg>
