<?xml version="1.0" encoding="UTF-8"?>
<svg width="86.422" height="103.13" viewBox="-0.258 -0.548 86.421763 103.12883" xmlns="http://www.w3.org/2000/svg">
 <g transform="translate(-25.078 -5.1652)">
  <path d="m41.38395,56.24603c1.03855,6.32731.20593,19.23483.20593,19.23483l-8.492,18.312c-.297.539-.516,1.172-.609,1.828-.469,3.031 1.609,5.836 4.633,6.305 2.344.359 4.594-.836 5.664-2.812l9.352-20.016c.195-.469.367-.953.445-1.492 .023-.242.047-.516.047-.758l-.078-15.203 14.375,6.266 2.312,14.875c.469,2.172 2.25,3.906 4.57,4.266 3.023.445 5.828-1.633 6.289-4.633 .078-.516.078-1.031.023-1.516l-2.828-17.938c-.344-1.734-1.492-3.227-3.094-3.984l-12.844-5.711-9.95732-17.56535 4.24008,3.12018c.414.461.953.852 1.555,1.094l15.453,4.516c2.047.445 4.148-.633 4.953-2.609 .906-2.242-.172-4.781-2.391-5.688l-.219-.07-13.43-3.961-10.28608-10.09818c-1.508-1.609-3.539-2.758-5.883-3.125-4.102-.609-11.65629,4.22309-13.71129,7.54309-2.09886,6.2697 8.01261,19.50439 9.70569,29.81942z"/>
  <path d="m69.57,89.332-.984,7.375-26.586,6.469 .25,4.57h64.844c2.289,0 4.148-1.859 4.148-4.156l-.078-87.391-8.883-2.078-5.101,22.977-8.523,3.586-7.57,21.188 7.18,16.211-2.023,6.227-16.674,5.022z"/>
  <path d="m33.101 21.171c4.562 0 8.266-3.711 8.266-8.281 0-4.562-3.703-8.273-8.266-8.273-4.57 0-8.281 3.711-8.281 8.273 0 4.57 3.711 8.281 8.281 8.281z"/>
  <path transform="translate(-.258,-.548)" d="m99.2 12.864-57.373 42.567" fill="none" stroke="#000" stroke-width="3"/>
  <path d="m58.438 48.852-16.711 6.8813" fill="#fff" stroke="#fff" stroke-width="3"/>
  <path transform="translate(-.258,-.548)" d="m59.287 49.311 16.223-8.6854 6.6627 37.015" fill="none" stroke="#000" stroke-width="3"/>
 </g>
</svg>
