<svg xmlns="http://www.w3.org/2000/svg" viewBox="0 0 123.99 120"><defs><style>.cls-1{fill:#f5f3f1;}</style></defs><g id="Capa_2" data-name="Capa 2"><g id="Capa_1-2" data-name="Capa 1"><path class="cls-1" d="M0,59.66c.59-6,2.17-12,3-18.15.17-1.19.18-2.42.36-3.61,1.31-8.66,7.35-14,13.45-19.36,3.32-.14,3.65-3.59,5.66-5.23a35.17,35.17,0,0,1,9.19-5.84,17.43,17.43,0,0,0,5.75-3.55C38.41,3,39.53,2,40.88,2.32c3.81,1,7.48-.52,11.24-.42C55.31,2,58.32.77,61.43.25A5.56,5.56,0,0,1,63.84.09c5.37,1.73,11,.34,16.37,1.23a3.47,3.47,0,0,1,.73.08C87.59,4,95.26,4.13,100.61,9.92c1.52,1.64,4,2,5.84,3.69a20.15,20.15,0,0,1,6.24,10.19A13,13,0,0,0,116,30.19a3.22,3.22,0,0,1,.82,1.2c1.62,5.34,4.55,10.26,5.16,15.91a8.62,8.62,0,0,1,0,3.16c-1.11,3.84-.06,7.34,1.28,10.89a10,10,0,0,1,.57,5c-1,6.51-.85,13.13-1.76,19.64-.67,4.79-1.51,9.57-6.64,11.92a1.17,1.17,0,0,0-.51.5c-2.57,4.75-7.06,7-11.72,9a15.3,15.3,0,0,0-3.7,2.31,13.44,13.44,0,0,1-6.67,3.32,4.29,4.29,0,0,0-1.81.69c-3.12,2.24-6.52,3-10.39,3.31-2.87.23-5.75,1.87-8.74,2.57a19.09,19.09,0,0,1-6.22.08,64,64,0,0,1-12.29-2.52c-6.66-2-13.62-.22-20.14-2.49-1.8-.63-3.68-.72-4.86-2.86-.7-1.26-2.42-2.19-4-3-2.71-1.4-5.51-3-5.92-6.57a.81.81,0,0,0-.22-.43C12.79,96.14,10.74,88.3,6.47,81.76a15.71,15.71,0,0,1-2.42-6.82A17.39,17.39,0,0,0,1.66,68.6C.13,65.85-.07,62.9,0,59.66ZM31.41,22.28a.91.91,0,0,0-.58-1c-.28-1.61-1-2.81-2.83-2.87-1.15-2.69-2.28-3.13-4.42-1.36s-3.88,3.62-5.77,5.49c-2.63,2.59-2.49,3.13,1.06,4.3C19,28,19.8,28.58,20.8,29c0,.63.49.7,1,.7-.22,1.79,1.6,1.6,2.36,2.44l-.44.41-3.93-.42A1.11,1.11,0,0,0,19.16,31c-.84-1.05-1.81-1.75-3.25-1.29-1.11-2.53-2.26-3.16-3.49-1.77C10,30.69,7.75,33.54,7,37.24c-1,4.74-1.57,9.51-2.06,14.32C4.58,55,4.42,55,7.92,55l.73,0c1.35.06,2.71-.4,4.06,0,.57-.22,1.16.49,1.72,0l3.83.56a.48.48,0,0,1,0,.39L14.52,56c-.45,0-.95,0-1.17.54-1.55.73-3.22.21-4.82.46-3.28-1.25-4.07-.83-3.9,2.41.33,6,1.1,11.89,3.94,17.34,1.9,3.64,4.15,7.13,5.55,11A54.86,54.86,0,0,0,20.47,100c1.94,2.85,2.56,3,5.27.68a2.35,2.35,0,0,0,2.11-2.05l.75-.8a5.6,5.6,0,0,0,2.33-3.3c.93-.07,1.2-.81,1.51-1.51l4.61-1.47h0c.36,1.3-1.3,1.78-1.22,3l-2.4,1.39c-2.17-.17-1.93,2.06-3,3l-.94.92c-1.34.49-1.62,1.67-1.86,2.87-2.76,2.17-2.81,2.75-.34,5a19.41,19.41,0,0,0,6.68,3.8c4.3,1.51,8.88,1.38,13.32,2,1.25.19,1.79-.39,1.7-1.64,0-.72,0-1.45,0-2.18l1.62-2.55.18,0,.17.06.15,2.81c-1.33,2.89-1,3.62,1.94,4.1,1,.17,2,.5,3.06.77,6.59,1.76,13.21,2.26,19.9.53,3.18-.82,3.37-1.15,2.21-4.5-.26-1.05-1.08-1.93-.93-3.1a1.35,1.35,0,0,0-1.12-1.25,2.85,2.85,0,0,0-.34-2.79c0-.77.16-1.56-.62-2.09.82-1.46-.54-2.39-.87-3.58.25-.57.68-.62,1.2-.44-.08,1,.82,1,1.34,1.33.7.47,1.54.82,1.39,1.9,0,.93,0,1.89,1.2,2.18a2.18,2.18,0,0,0,1.25,2.69.93.93,0,0,0,.53,1,2.9,2.9,0,0,0,1.38,2.82c0,4,.06,4,3.64,2.72,6.18-2.28,11.92-5.47,17.74-8.48,8.62-4.44,13.8-11.4,15.19-21.08a100.37,100.37,0,0,0,.57-14.08c0-2.89-.8-3.68-3.87-3.85-.88-.88-2-.56-3-.5-.33-.57-.91-.43-1.42-.51l-3.26-.45-2.3-.5c-.48,0-1,.14-1.39-.4L106,62.3a3.69,3.69,0,0,0,2-.49l3.41.5h1.4a4.42,4.42,0,0,0,2.94.47c3.44,1.27,4.13.84,3.89-2.66-.26-3.71-.58-7.41-1-11.1a32.55,32.55,0,0,0-2.83-11.22c-2.94-5.87-6.6-11.35-9.4-17.28a19.81,19.81,0,0,0-9.53-9.62c-2.89-1.42-3.81-.89-4,2.52-1.7-.06-1.52,2.15-3,2.49-.34-1.37.9-2.49.49-3.8,1.77-2.62,1.51-3.39-1.29-4.66a26.62,26.62,0,0,0-5.28-1.76c-3.25-.74-4-.32-5.12,3a6.62,6.62,0,0,0-.44,3.88c-.51.31-.46.83-.51,1.3l0,3.61c-.72.61-.45,1.4-.42,2.16-1.43.66-2,2-2.75,3.26l0,0c-.67-1.18,0-2.51-.41-3.72A2.36,2.36,0,0,0,74.81,17c2.12-.46,1.39-2.13,1.48-3.46V12a8.17,8.17,0,0,0,.47-3.73c0-.73,0-1.47,0-2.19C77,4.74,76.36,4.3,75,4.24,68.79,4,62.6,3.56,56.35,4.17A62.76,62.76,0,0,0,31,11.78c-3.16,1.79-3.18,2.21-.44,4.78-.28,1.87,1.81,2.08,2.36,3.37a1.23,1.23,0,0,0,.6,1.08l.84,2.77c0,.86.09,1.64,1,2-.46,1.79,1,2.59,1.91,3.63.08.56.46.71,1,.71a4.13,4.13,0,0,0,1.88,3.31,1.54,1.54,0,0,0,.67,1.36c.62,1,1,2.21,2.41,2.48-.13.75.18,1.16,1,1.18.23,1.26-.89,1.09-1.51,1.44,0-.69-.35-1-1-1-.17-1.28-1.24-2-1.9-2.91a1.41,1.41,0,0,0-.94-1.42l-2.49-3a1.07,1.07,0,0,0-.55-.95c-.71-1.21-.65-3-2.38-3.47.71-.94.31-1.66-.45-2.32C32.7,23.75,32.54,22.73,31.41,22.28Z"/><path class="cls-1" d="M115.87,64.77c3.07.17,3.89,1,3.87,3.85a100.37,100.37,0,0,1-.57,14.08c-1.39,9.68-6.57,16.64-15.19,21.08-5.82,3-11.56,6.2-17.74,8.48-3.58,1.32-3.67,1.29-3.64-2.72a149,149,0,0,0,21-10.19A22.38,22.38,0,0,0,115,82.75,107,107,0,0,0,115.87,64.77Z"/><path class="cls-1" d="M115.78,62.77c-.51-5.88-.87-11.79-1.57-17.65-.44-3.67-2.51-6.81-4.24-10-2.68-5-5.58-9.85-8.18-14.89C100,16.7,96.41,15,92.92,13.41c.18-3.41,1.1-3.94,4-2.52a19.81,19.81,0,0,1,9.53,9.62c2.8,5.93,6.46,11.41,9.4,17.28A32.55,32.55,0,0,1,118.67,49c.42,3.69.74,7.39,1,11.1C119.91,63.61,119.22,64,115.78,62.77Z"/><path class="cls-1" d="M72.41,92.46A31.63,31.63,0,0,0,85.16,88C95.29,81.8,97.5,73.51,96.5,61.8c-.67-7.68-4.13-14.42-8.24-20.83a13.26,13.26,0,0,1-1.88-3.92c-1.14-4.62-4.4-6.72-8.86-7.47a56.75,56.75,0,0,0-8.74-.43c-3.9,0-7.8,0-11.69-.28-5.68-.4-10.8.69-15,4.85-.4.39-.88.71-1.32,1.07a1.54,1.54,0,0,1-.67-1.36C45,28,51.34,26.67,58.27,27.29c4.95.44,9.89.3,14.84.32A21.78,21.78,0,0,1,81.22,29a10.44,10.44,0,0,1,6.69,7.47,11.29,11.29,0,0,0,1.48,3.28C94.2,47.41,98,55.42,98.31,64.8c.54,16.76-8.54,24.74-21.84,28.52-1.16.33-2.36.55-3.55.82Z"/><path class="cls-1" d="M76.76,8.31C67.61,7.6,58.49,7.23,49.4,9.1a56.55,56.55,0,0,0-18.84,7.46c-2.74-2.57-2.72-3,.44-4.78A62.76,62.76,0,0,1,56.35,4.17C62.6,3.56,68.79,4,75,4.24c1.35.06,1.95.5,1.8,1.88C76.74,6.84,76.78,7.58,76.76,8.31Z"/><path class="cls-1" d="M25.74,100.65c-2.71,2.27-3.33,2.17-5.27-.68a54.86,54.86,0,0,1-6.35-12.23c-1.4-3.9-3.65-7.39-5.55-11C5.73,71.26,5,65.36,4.63,59.37c-.17-3.24.62-3.66,3.9-2.41,0,.81,0,1.62,0,2.43.28,5.29,1,10.51,3.34,15.32,1.55,3.15,3.54,6.11,4.83,9.35A69.62,69.62,0,0,0,25.74,100.65Z"/><path class="cls-1" d="M43.21,37.27c3.67-3.56,8.15-5,13.17-5.44,6.37-.53,12.69-1.69,19.11-.33,3.92.84,6.71,2.68,7.48,6.86.48,2.6,2.33,4.4,3.84,6.38a41.94,41.94,0,0,1,7.38,16,14.76,14.76,0,0,1-.26,8.38c-1,3.07-1.89,6.2-3.08,9.2C89.77,81,87.53,83,85.27,84.59c-3.88,2.75-8,5.23-12.87,6L71.92,89c6.64-1.45,12.36-4.59,16.52-10,2.22-2.87,2.61-6.74,3.88-10.14,1.21-3.23.77-6.54-.17-9.81a41,41,0,0,0-7.66-14.81c-1.12-1.38-2.55-2.72-2.76-4.51-.62-5.27-4.35-6.74-8.7-7.13-7.25-.67-14.44.24-21.55,1.58-2.82.54-5.15,2.3-7.31,4.18C43.39,38.43,43.08,38,43.21,37.27Z"/><path class="cls-1" d="M25.55,34c-4.37,5.8-5.84,12.27-5,19.48C21.45,61.66,21.72,70,23.64,78,25,83.91,27.3,89.3,32.44,93c-.31.7-.58,1.44-1.51,1.51a19.24,19.24,0,0,1-6.28-7.27c-3-5.67-4.15-11.86-4.91-18.14-.53-4.4-1-8.81-1.44-13.22a.48.48,0,0,0,0-.39c0-1,.06-1.94,0-2.9a27.68,27.68,0,0,1,5.47-20l.44-.41a33.41,33.41,0,0,1,8.76-7.39c.76.66,1.16,1.38.45,2.32A30.14,30.14,0,0,0,26.45,33,.85.85,0,0,0,25.55,34Z"/><path class="cls-1" d="M88.48,92.07c-.54-.83.32-1.11.68-1.42,8.92-7.69,12-17.83,11.81-29.1-.1-8.48-1.78-16.77-6.9-23.72C89.4,31.5,84.26,25.45,75.58,24.35c-13-1.65-25.56-.49-37.33,5.77-.49,0-.87-.15-1-.71,7.44-4.16,15.49-6.06,23.93-6.75,4.49-.37,8.92.25,13.38.18l0,0,4.87,1.36c4.62,1.33,7.86,4.38,11.16,7.8a37.76,37.76,0,0,1,9.77,17.36c3,12.1,2.43,23.82-4.13,34.79-1.79,3-4.47,5.26-6.86,7.74C89.22,92.09,88.79,92,88.48,92.07Z"/><path class="cls-1" d="M37.05,91.52c0-.16,0-.39-.14-.45C29.14,86.23,27.32,78.32,26,70.12c-.95-6-1.27-12.06-1.73-18.11a21.63,21.63,0,0,1,3.48-13.62c.38-.59,1-1.12.93-1.93.49.12.74-.13.87-.57a24.78,24.78,0,0,1,6.16-5.34,1.07,1.07,0,0,1,.55.95C28.71,36.75,24.65,43.73,25.5,53.18c.65,7.26.89,14.57,2.53,21.7a40,40,0,0,0,1.76,5.8c1.81,4.61,4.53,8.4,9.6,9.88,5.82,1.7,11.08,5,17.11,6A58.87,58.87,0,0,0,72,97c.61-.06,1.16-.13,1-1h.17a2.74,2.74,0,0,0,2.45.48,30.48,30.48,0,0,0,10.85-3.83c.55-.33,1-1.39,2-.62-1.42,2.33-4,2.92-6.22,3.85a25.3,25.3,0,0,1-6.78,1.72c-.52-.18-1-.13-1.2.44A7.66,7.66,0,0,0,72.88,98c-9.61,1.07-18.91.3-27.75-4.11A19.49,19.49,0,0,0,37,91.53Z"/><path class="cls-1" d="M39.71,36c-7.81,6.15-9.49,14.56-8.59,23.8.62,6.34,2.72,12.3,4.9,18.26,1.67,4.55,4.77,7.42,8.84,9.55a64.63,64.63,0,0,0,15.23,5.66c3.57.85,7.1-.26,10.66-.35.75.17,1.24.54,1.1,1.41C60.15,96.72,50,92.69,40.39,86.63c-2.68-1.68-4.13-4.17-5.33-7-3.5-8.29-6-16.75-5.67-25.88.3-7.82,3.27-14.27,9.38-19.22A1.41,1.41,0,0,1,39.71,36Z"/><path class="cls-1" d="M70.94,90.94c-10,1.51-18.82-1.87-27.43-6.27a5.26,5.26,0,0,1-2-1.71c-3.17-5.07-6.6-10.07-7-16.32-.29-4.28-.69-8.58-.62-12.86.1-6.17,3.69-10.72,7.76-14.92.7,0,1,.34,1,1-.58.68-1.14,1.37-1.73,2-4.3,4.78-6.36,10.24-5.34,16.76.38,2.4.27,4.87.41,7.3.36,6.1,3.66,11,6.72,16A3.34,3.34,0,0,0,44,83.09c8.26,4.12,16.64,7.78,26.26,6.26A1.88,1.88,0,0,1,70.94,90.94Z"/><path class="cls-1" d="M77.76,17.44c6.9,1.37,12.12,5,17.15,10.1,9.42,9.59,12.42,21.16,13.29,33.83,0,.14-.11.29-.17.44a3.69,3.69,0,0,1-2,.49c-.29-10.13-2.11-19.93-8.33-28.16C92.47,27.3,86.73,20.77,77.34,19.6,77.31,18.84,77,18.05,77.76,17.44Z"/><path class="cls-1" d="M108.2,63.31c-.26,8.62-2,16.84-6.6,24.27C96.43,95.91,89.22,101.31,79.44,103c-1.19-.29-1.16-1.25-1.2-2.18,8.61-1,15.15-5.42,20.08-12.35,5.44-7.68,7.6-16.38,7.58-25.69Z"/><path class="cls-1" d="M8.65,55l-.73,0c-3.5,0-3.34,0-3-3.43C5.43,46.75,6.05,42,7,37.24c.75-3.7,3-6.55,5.42-9.27,1.23-1.39,2.38-.76,3.49,1.77-1.81,2.65-4.29,4.92-5,8.21A104.7,104.7,0,0,0,8.65,55Z"/><path class="cls-1" d="M78.19,110.87c1.16,3.35,1,3.68-2.21,4.5-6.69,1.73-13.31,1.23-19.9-.53-1-.27-2-.6-3.06-.77-2.91-.48-3.27-1.21-1.94-4.1a28.5,28.5,0,0,1,3.33.53C62.31,112.7,70.22,113.35,78.19,110.87Z"/><path class="cls-1" d="M27.65,102.68c5.15,5.43,11.93,6.37,18.89,6.82l2.42.17c0,.73,0,1.46,0,2.18.09,1.25-.45,1.83-1.7,1.64-4.44-.64-9-.51-13.32-2a19.41,19.41,0,0,1-6.68-3.8C24.84,105.43,24.89,104.85,27.65,102.68Z"/><path class="cls-1" d="M35.82,94.49a136.16,136.16,0,0,1,13.41,5.06c6.46,2.74,13.31,2.59,20.12,2.49,2,0,3.89-.26,5.83-.4.78.53.67,1.32.62,2.09-15.14,2.84-28.82-2.15-42.38-7.85Z"/><path class="cls-1" d="M34.36,23.78c12.8-6.37,26.32-8.34,40.45-6.75a2.36,2.36,0,0,1-.61,2.09C60.68,18,47.61,19.4,35.39,25.78,34.45,25.42,34.33,24.64,34.36,23.78Z"/><path class="cls-1" d="M111.44,62.31c-.18-11.8-2.94-23-10.2-32.33-5.3-6.84-11.15-13.6-20.37-15.62-1-.23-2.06-.35-3.09-.53,0-.47,0-1,.51-1.3C85.14,13.62,91,16.46,95.44,22c1.62,2,4,3.3,5.58,5.39a54.74,54.74,0,0,1,11.39,31.89,29.24,29.24,0,0,0,.43,3.06Z"/><path class="cls-1" d="M80.69,105.72c2.47-.75,5-1.35,7.39-2.28,11.34-4.37,17.77-13.14,21.33-24.32a43.36,43.36,0,0,0,2-15.36c.51.08,1.09-.06,1.42.51-.19,10.72-2.85,20.64-9.46,29.3C97.78,101,90.18,105,81.22,106.72A.93.93,0,0,1,80.69,105.72Z"/><path class="cls-1" d="M77.26,107.77c-4.37.29-8.73.62-13.09.86a42.87,42.87,0,0,1-13.24-1.47l-.17-.06-.18,0a82.58,82.58,0,0,0-13.75-4.35,18.53,18.53,0,0,1-7.32-3l.94-.92a15.22,15.22,0,0,0,2.75,1.47c7.12,2.15,14.18,4.54,21.4,6.23s14.36.6,21.54-.07A1.35,1.35,0,0,1,77.26,107.77Z"/><path class="cls-1" d="M76.29,13.57c-10.89-1.47-21.49.1-32,3.11A87.66,87.66,0,0,0,33.52,21a1.23,1.23,0,0,1-.6-1.08,81.86,81.86,0,0,1,37.55-8.19c1.94,0,3.88.19,5.82.3Z"/><path class="cls-1" d="M14.52,56c1.35,7.78,2.2,15.66,4.22,23.33C20.57,86.23,23,92.85,28.6,97.8l-.75.8c-4.8-3.88-7.24-9.21-9.13-14.87-3-8.85-3.92-18.09-5.37-27.23C13.57,56,14.07,56,14.52,56Z"/><path class="cls-1" d="M18.87,26.8c-3.55-1.17-3.69-1.71-1.06-4.3,1.89-1.87,3.73-3.8,5.77-5.49s3.27-1.33,4.42,1.36C24.69,20.89,21.92,24,18.87,26.8Z"/><path class="cls-1" d="M90.42,12.1A45,45,0,0,0,78.73,8.65c1.09-3.29,1.87-3.71,5.12-3a26.62,26.62,0,0,1,5.28,1.76C91.93,8.71,92.19,9.48,90.42,12.1Z"/><path class="cls-1" d="M12.71,55c.4-3.19-.39-6.38.13-9.6A28.07,28.07,0,0,1,19.16,31a1.11,1.11,0,0,1,.61,1.11C15,38.41,13.31,45.57,14,53.34a8.84,8.84,0,0,0,.44,1.58C13.87,55.46,13.28,54.75,12.71,55Z"/><path class="cls-1" d="M31.41,22.28a47.88,47.88,0,0,0-9.63,7.43c-.49,0-.94-.07-1-.7a39.25,39.25,0,0,1,10-7.77A.91.91,0,0,1,31.41,22.28Z"/><path class="cls-1" d="M69.44,86.59c-6.65.7-13.09.12-19.24-2.75-5.83-2.71-9.45-7-10-13.53a100.71,100.71,0,0,0-1.73-11.05c-1.72-9,1.92-16.47,10.18-20.5A39.18,39.18,0,0,1,70,34.93,15,15,0,0,1,82.5,43.76c2.47,5,3.91,10.44,7,15.19a7.68,7.68,0,0,1,.42,6.85,60,60,0,0,0-2.37,9.91,6.77,6.77,0,0,1-3.34,4.79c-4,2.45-8,5-12.78,5.7a1,1,0,0,1-.5-1c4.35-.92,8.16-3,11.94-5.25a7.19,7.19,0,0,0,3.71-5.57,49.94,49.94,0,0,1,2-8.49,8.42,8.42,0,0,0-1-7.91,29.55,29.55,0,0,1-3.56-7.16,47.39,47.39,0,0,0-3-7.18c-2-3.45-4.79-6.33-8.67-7-9.77-1.59-19-.4-27.2,6-5,3.93-6.28,9-5.65,14.85.49,4.5,1.52,8.95,2,13.46a13,13,0,0,0,6.5,10.25c6.58,4,13.75,5,21.29,4.11Z"/><path class="cls-1" d="M70.91,85.19a1,1,0,0,0,.5,1c-.36,1,.33,1.89.51,2.84l.48,1.57v1.85l.51,1.68,0,.85c-.59.11-.67-.51-1.05-.71.14-.87-.35-1.24-1.1-1.41.54-.6.27-1.27.19-1.93a1.88,1.88,0,0,0-.72-1.59,2.38,2.38,0,0,0-.78-2.76l-.06-1.2c0-.64-.07-1.28-.11-1.91l.27-.28Z"/><path class="cls-1" d="M73.24,96h-.17a.82.82,0,0,1-.2-1.06C73.43,95.16,73.38,95.58,73.24,96Z"/><path class="cls-1" d="M27.52,34.5l2.05,1.39c-.13.44-.38.69-.87.57C28,36,27.24,35.56,27.52,34.5Z"/><path class="cls-1" d="M26.45,33l.62,1L25.55,34A.85.85,0,0,1,26.45,33Z"/><path class="cls-1" d="M27,34a.51.51,0,0,1,.52.52C27.07,34.66,26.89,34.49,27,34Z"/><path class="cls-1" d="M65.33,38.65c1.78.16,3.58.2,5.33.51,4.62.79,7.59,3.27,8.4,8.13s2.38,9.25,6.2,12.62a4.46,4.46,0,0,1,1.34,4c-.22,2.43-.47,4.83-.93,7.23a10.24,10.24,0,0,1-8.43,8.69c-5.14,1.09-10.37,1.79-15.57,2.57a9.8,9.8,0,0,1-5-.91c-2-.79-4.06-1.59-6.16-2.23a7.9,7.9,0,0,1-5.4-6.08A57.55,57.55,0,0,1,43.6,50.74C44.48,44.69,48,41.16,54,40A71,71,0,0,1,65.33,38.65ZM66,39.89a102.38,102.38,0,0,0-11.57,1.3c-6,.94-9.34,5.25-9.84,10.88a63.27,63.27,0,0,0,1.79,21A6.39,6.39,0,0,0,50.64,78c2.46.8,4.86,1.75,7.28,2.67a7,7,0,0,0,4.52.54c3.84-1.15,7.82-1.3,11.74-1.86,6.81-1,9.45-3.53,10.66-10.28.29-1.59.22-3.24.54-4.82a3.41,3.41,0,0,0-1.09-3.51c-4.1-3.58-5.56-8.43-6.5-13.5-.71-3.86-3.08-5.93-6.72-6.76A17.61,17.61,0,0,0,66,39.89Z"/><path class="cls-1" d="M69.27,83.48c-.2-.19-.32-.38,0-.58a3.09,3.09,0,0,1,.3.31Z"/><path class="cls-1" d="M60.47,79c-2.46.29-5.5-.65-8.42-2.58-1.81-1.2-2.95-2.68-3-4.63-.14-6.18-1.58-12.2-2.07-18.32a11.3,11.3,0,0,1,1.66-7.75,1.93,1.93,0,0,1,1.28-1c5.87-1.17,11.71-2.62,17.75-2.38a8.11,8.11,0,0,1,7.86,7,14,14,0,0,0,3.33,6.86c2.78,3.33,3.55,7.19,3.15,11.39A10.06,10.06,0,0,1,76.1,76C71.5,78.33,66.52,78.83,60.47,79Zm.83-1.59c4.94-.28,9.89-.59,14.37-3a8.76,8.76,0,0,0,4.79-7.89A13.94,13.94,0,0,0,77,56.43a10,10,0,0,1-2.74-5.3c-.6-5-3.5-7.46-8.58-7.28-4.8.17-9.45,1.44-14.2,2a2.81,2.81,0,0,0-2.42,2.36,17.61,17.61,0,0,0-.27,8.44c.87,4.13,1.79,8.26,1.57,12.5-.16,3.3,1.5,5.32,4.11,6.88A11.48,11.48,0,0,0,61.3,77.42Z"/><path class="cls-1" d="M73.77,60.38c-2.29-.14-2.1-2.06-2.29-3.17-1.08-6.11-3.63-8.43-9.83-8.54-1.21,0-2.44,0-3.65.07-3,.22-4.56,1.85-4.65,4.82a9.05,9.05,0,0,0,.26,2.9,35.62,35.62,0,0,1,1.28,11.06c0,3.73,2.87,6,6.51,5.56a78.55,78.55,0,0,0,10.67-2c2-.5,3.3-1.54,3.25-3.56s1.47-4.22-.88-5.86a.84.84,0,0,1-.09-.62c.27-.12.66-.28.87-.17a2.78,2.78,0,0,1,1.61,2c1.12,5.86-1.33,9.35-7.3,10.31-2.72.44-5.44.87-8.17,1.25-3.51.49-7.46-2.6-7.51-6.27a70.14,70.14,0,0,0-1.6-12.75c-.9-4.57,1.45-7.4,6-7.91a19.78,19.78,0,0,1,7.24.42c4.83,1.27,6.34,3.52,7,8.12A10.1,10.1,0,0,0,73.77,60.38Z"/><path class="cls-1" d="M65.85,69.68c-4.86.07-7.16-1.74-8.13-6.48-.24-1.18-.36-2.4-.5-3.6-.5-4.45,1-6.46,5.44-6.74,3.87-.25,7.92,1.22,7.87,5.46a3.7,3.7,0,0,0,1.23,3,2.58,2.58,0,0,1,.69,2C72.7,68.62,71.68,69.6,65.85,69.68ZM63.8,54c-4.54-.1-6.09,1.65-5.35,6.07.12.72.21,1.44.3,2.17A7.65,7.65,0,0,0,70.09,68a1.73,1.73,0,0,0,1-1.32c.19-1.81.87-3.7-.83-5.23a3.27,3.27,0,0,1-.8-2.23C69,55.55,67.44,54.1,63.8,54Z"/><path class="cls-1" d="M66.36,66.84c-4.39-.06-7-3.06-6.13-7,.4-1.81,1.36-3.23,3.44-3.12s4.13.55,4.73,3a13.12,13.12,0,0,0,.93,2.73C70.55,65,69.24,66.89,66.36,66.84Zm.07-1.13c1.81,0,2.66-1.08,1.87-2.64a17.63,17.63,0,0,1-1.13-3.17c-.51-1.76-2-1.9-3.49-2s-1.94,1-2.28,2.1C60.47,63.11,62.79,65.74,66.43,65.71Z"/></g></g></svg>